<mxfile host="app.diagrams.net" agent="Mozilla/5.0 (Windows NT 10.0; Win64; x64) AppleWebKit/537.36 (KHTML, like Gecko) Chrome/135.0.0.0 Safari/537.36" version="26.2.10">
  <diagram id="C5RBs43oDa-KdzZeNtuy" name="Page-1">
    <mxGraphModel dx="2983" dy="1606" grid="1" gridSize="10" guides="1" tooltips="1" connect="1" arrows="1" fold="1" page="1" pageScale="1" pageWidth="827" pageHeight="1169" math="0" shadow="0">
      <root>
        <mxCell id="WIyWlLk6GJQsqaUBKTNV-0" />
        <mxCell id="WIyWlLk6GJQsqaUBKTNV-1" parent="WIyWlLk6GJQsqaUBKTNV-0" />
        <mxCell id="aGrO9-GU3ssrBTv9LyUv-2" value="" style="edgeStyle=orthogonalEdgeStyle;rounded=0;orthogonalLoop=1;jettySize=auto;html=1;" edge="1" parent="WIyWlLk6GJQsqaUBKTNV-1" source="aGrO9-GU3ssrBTv9LyUv-7" target="aGrO9-GU3ssrBTv9LyUv-1">
          <mxGeometry relative="1" as="geometry" />
        </mxCell>
        <mxCell id="aGrO9-GU3ssrBTv9LyUv-0" value="INICIO" style="strokeWidth=2;html=1;shape=mxgraph.flowchart.start_1;whiteSpace=wrap;fillColor=#d5e8d4;strokeColor=#82b366;" vertex="1" parent="WIyWlLk6GJQsqaUBKTNV-1">
          <mxGeometry x="360" y="90" width="100" height="60" as="geometry" />
        </mxCell>
        <mxCell id="aGrO9-GU3ssrBTv9LyUv-4" value="" style="edgeStyle=orthogonalEdgeStyle;rounded=0;orthogonalLoop=1;jettySize=auto;html=1;" edge="1" parent="WIyWlLk6GJQsqaUBKTNV-1" source="aGrO9-GU3ssrBTv9LyUv-39" target="aGrO9-GU3ssrBTv9LyUv-3">
          <mxGeometry relative="1" as="geometry" />
        </mxCell>
        <mxCell id="aGrO9-GU3ssrBTv9LyUv-1" value="&lt;div&gt;&lt;br&gt;&lt;/div&gt;SAQUE" style="html=1;strokeWidth=2;shape=manualInput;whiteSpace=wrap;rounded=1;size=26;arcSize=11;fillColor=#dae8fc;strokeColor=#6c8ebf;" vertex="1" parent="WIyWlLk6GJQsqaUBKTNV-1">
          <mxGeometry x="360" y="300" width="100" height="60" as="geometry" />
        </mxCell>
        <mxCell id="aGrO9-GU3ssrBTv9LyUv-32" value="S" style="edgeStyle=orthogonalEdgeStyle;rounded=0;orthogonalLoop=1;jettySize=auto;html=1;exitX=1;exitY=0.5;exitDx=0;exitDy=0;exitPerimeter=0;entryX=0;entryY=0.5;entryDx=0;entryDy=0;" edge="1" parent="WIyWlLk6GJQsqaUBKTNV-1" source="aGrO9-GU3ssrBTv9LyUv-3" target="aGrO9-GU3ssrBTv9LyUv-5">
          <mxGeometry relative="1" as="geometry" />
        </mxCell>
        <mxCell id="aGrO9-GU3ssrBTv9LyUv-36" value="" style="edgeStyle=orthogonalEdgeStyle;rounded=0;orthogonalLoop=1;jettySize=auto;html=1;" edge="1" parent="WIyWlLk6GJQsqaUBKTNV-1" source="aGrO9-GU3ssrBTv9LyUv-3" target="aGrO9-GU3ssrBTv9LyUv-33">
          <mxGeometry relative="1" as="geometry" />
        </mxCell>
        <mxCell id="aGrO9-GU3ssrBTv9LyUv-45" value="N" style="edgeLabel;html=1;align=center;verticalAlign=middle;resizable=0;points=[];" vertex="1" connectable="0" parent="aGrO9-GU3ssrBTv9LyUv-36">
          <mxGeometry x="-0.3758" y="2" relative="1" as="geometry">
            <mxPoint as="offset" />
          </mxGeometry>
        </mxCell>
        <mxCell id="aGrO9-GU3ssrBTv9LyUv-3" value="SAQUE &amp;gt;= 100" style="strokeWidth=2;html=1;shape=mxgraph.flowchart.decision;whiteSpace=wrap;fillColor=#ffe6cc;strokeColor=#d79b00;" vertex="1" parent="WIyWlLk6GJQsqaUBKTNV-1">
          <mxGeometry x="360" y="450" width="100" height="100" as="geometry" />
        </mxCell>
        <mxCell id="aGrO9-GU3ssrBTv9LyUv-5" value="SAQUE = SAQUE - 100&lt;div&gt;QNT-100 = QNT-100 + 1&lt;/div&gt;" style="whiteSpace=wrap;html=1;fillColor=#f5f5f5;strokeColor=#666666;strokeWidth=2;fontColor=#333333;" vertex="1" parent="WIyWlLk6GJQsqaUBKTNV-1">
          <mxGeometry x="530" y="470" width="140" height="60" as="geometry" />
        </mxCell>
        <mxCell id="aGrO9-GU3ssrBTv9LyUv-8" value="" style="edgeStyle=orthogonalEdgeStyle;rounded=0;orthogonalLoop=1;jettySize=auto;html=1;" edge="1" parent="WIyWlLk6GJQsqaUBKTNV-1" source="aGrO9-GU3ssrBTv9LyUv-0" target="aGrO9-GU3ssrBTv9LyUv-7">
          <mxGeometry relative="1" as="geometry">
            <mxPoint x="410" y="240" as="sourcePoint" />
            <mxPoint x="410" y="350" as="targetPoint" />
          </mxGeometry>
        </mxCell>
        <mxCell id="aGrO9-GU3ssrBTv9LyUv-7" value="&lt;div&gt;&amp;nbsp;QNT-100 = 0&amp;nbsp; &amp;nbsp;&amp;nbsp;&lt;span style=&quot;background-color: transparent; color: light-dark(rgb(51, 51, 51), rgb(193, 193, 193));&quot;&gt;QNT-50 = 0&lt;/span&gt;&lt;/div&gt;&lt;div&gt;&amp;nbsp;QNT-20 = 0&amp;nbsp; &amp;nbsp; &amp;nbsp;&lt;span style=&quot;background-color: transparent; color: light-dark(rgb(51, 51, 51), rgb(193, 193, 193));&quot;&gt;QNT-10 = 0&lt;/span&gt;&lt;/div&gt;&lt;div&gt;QNT-5 = 0&amp;nbsp; &amp;nbsp; &amp;nbsp; &amp;nbsp;&amp;nbsp;&lt;span style=&quot;background-color: transparent; color: light-dark(rgb(51, 51, 51), rgb(193, 193, 193));&quot;&gt;QNT-2 = 0&amp;nbsp;&amp;nbsp;&lt;/span&gt;&lt;span style=&quot;background-color: transparent; color: light-dark(rgb(51, 51, 51), rgb(193, 193, 193));&quot;&gt;QNT-1 = 0&lt;/span&gt;&lt;/div&gt;" style="whiteSpace=wrap;html=1;fillColor=#f5f5f5;strokeColor=#666666;strokeWidth=2;fontColor=#333333;" vertex="1" parent="WIyWlLk6GJQsqaUBKTNV-1">
          <mxGeometry x="300" y="210" width="220" height="60" as="geometry" />
        </mxCell>
        <mxCell id="aGrO9-GU3ssrBTv9LyUv-9" value="" style="edgeStyle=orthogonalEdgeStyle;rounded=0;orthogonalLoop=1;jettySize=auto;html=1;" edge="1" parent="WIyWlLk6GJQsqaUBKTNV-1" source="aGrO9-GU3ssrBTv9LyUv-10" target="aGrO9-GU3ssrBTv9LyUv-11">
          <mxGeometry relative="1" as="geometry" />
        </mxCell>
        <mxCell id="aGrO9-GU3ssrBTv9LyUv-47" value="S" style="edgeLabel;html=1;align=center;verticalAlign=middle;resizable=0;points=[];" vertex="1" connectable="0" parent="aGrO9-GU3ssrBTv9LyUv-9">
          <mxGeometry x="-0.0514" y="4" relative="1" as="geometry">
            <mxPoint as="offset" />
          </mxGeometry>
        </mxCell>
        <mxCell id="aGrO9-GU3ssrBTv9LyUv-29" value="" style="edgeStyle=orthogonalEdgeStyle;rounded=0;orthogonalLoop=1;jettySize=auto;html=1;" edge="1" parent="WIyWlLk6GJQsqaUBKTNV-1" source="aGrO9-GU3ssrBTv9LyUv-41" target="aGrO9-GU3ssrBTv9LyUv-25">
          <mxGeometry relative="1" as="geometry" />
        </mxCell>
        <mxCell id="aGrO9-GU3ssrBTv9LyUv-10" value="SAQUE &amp;gt;= 50" style="strokeWidth=2;html=1;shape=mxgraph.flowchart.decision;whiteSpace=wrap;fillColor=#ffe6cc;strokeColor=#d79b00;" vertex="1" parent="WIyWlLk6GJQsqaUBKTNV-1">
          <mxGeometry x="360" y="640" width="100" height="100" as="geometry" />
        </mxCell>
        <mxCell id="aGrO9-GU3ssrBTv9LyUv-11" value="SAQUE = SAQUE - 50&lt;div&gt;QNT-50 = QNT-50 + 1&lt;/div&gt;" style="whiteSpace=wrap;html=1;fillColor=#f5f5f5;strokeColor=#666666;strokeWidth=2;fontColor=#333333;" vertex="1" parent="WIyWlLk6GJQsqaUBKTNV-1">
          <mxGeometry x="530" y="660" width="140" height="60" as="geometry" />
        </mxCell>
        <mxCell id="aGrO9-GU3ssrBTv9LyUv-24" value="" style="edgeStyle=orthogonalEdgeStyle;rounded=0;orthogonalLoop=1;jettySize=auto;html=1;" edge="1" parent="WIyWlLk6GJQsqaUBKTNV-1" source="aGrO9-GU3ssrBTv9LyUv-25" target="aGrO9-GU3ssrBTv9LyUv-26">
          <mxGeometry relative="1" as="geometry" />
        </mxCell>
        <mxCell id="aGrO9-GU3ssrBTv9LyUv-49" value="S" style="edgeLabel;html=1;align=center;verticalAlign=middle;resizable=0;points=[];" vertex="1" connectable="0" parent="aGrO9-GU3ssrBTv9LyUv-24">
          <mxGeometry x="0.0057" relative="1" as="geometry">
            <mxPoint as="offset" />
          </mxGeometry>
        </mxCell>
        <mxCell id="aGrO9-GU3ssrBTv9LyUv-25" value="SAQUE &amp;gt;= 20" style="strokeWidth=2;html=1;shape=mxgraph.flowchart.decision;whiteSpace=wrap;fillColor=#ffe6cc;strokeColor=#d79b00;" vertex="1" parent="WIyWlLk6GJQsqaUBKTNV-1">
          <mxGeometry x="360" y="830" width="100" height="100" as="geometry" />
        </mxCell>
        <mxCell id="aGrO9-GU3ssrBTv9LyUv-26" value="SAQUE = SAQUE - 20&lt;div&gt;QNT-20 = QNT-20 + 1&lt;/div&gt;" style="whiteSpace=wrap;html=1;fillColor=#f5f5f5;strokeColor=#666666;strokeWidth=2;fontColor=#333333;" vertex="1" parent="WIyWlLk6GJQsqaUBKTNV-1">
          <mxGeometry x="530" y="850" width="140" height="60" as="geometry" />
        </mxCell>
        <mxCell id="aGrO9-GU3ssrBTv9LyUv-37" value="" style="edgeStyle=orthogonalEdgeStyle;rounded=0;orthogonalLoop=1;jettySize=auto;html=1;" edge="1" parent="WIyWlLk6GJQsqaUBKTNV-1" source="aGrO9-GU3ssrBTv9LyUv-33" target="aGrO9-GU3ssrBTv9LyUv-10">
          <mxGeometry relative="1" as="geometry" />
        </mxCell>
        <mxCell id="aGrO9-GU3ssrBTv9LyUv-33" value="" style="strokeWidth=2;html=1;shape=mxgraph.flowchart.start_2;whiteSpace=wrap;fillColor=#f5f5f5;gradientColor=#b3b3b3;strokeColor=#666666;" vertex="1" parent="WIyWlLk6GJQsqaUBKTNV-1">
          <mxGeometry x="395" y="584.5" width="30" height="30" as="geometry" />
        </mxCell>
        <mxCell id="aGrO9-GU3ssrBTv9LyUv-40" value="" style="edgeStyle=orthogonalEdgeStyle;rounded=0;orthogonalLoop=1;jettySize=auto;html=1;" edge="1" parent="WIyWlLk6GJQsqaUBKTNV-1" source="aGrO9-GU3ssrBTv9LyUv-1" target="aGrO9-GU3ssrBTv9LyUv-39">
          <mxGeometry relative="1" as="geometry">
            <mxPoint x="410" y="410" as="sourcePoint" />
            <mxPoint x="410" y="450" as="targetPoint" />
          </mxGeometry>
        </mxCell>
        <mxCell id="aGrO9-GU3ssrBTv9LyUv-39" value="" style="strokeWidth=2;html=1;shape=mxgraph.flowchart.start_2;whiteSpace=wrap;fillColor=#f5f5f5;gradientColor=#b3b3b3;strokeColor=#666666;" vertex="1" parent="WIyWlLk6GJQsqaUBKTNV-1">
          <mxGeometry x="395" y="390" width="30" height="30" as="geometry" />
        </mxCell>
        <mxCell id="aGrO9-GU3ssrBTv9LyUv-42" value="" style="edgeStyle=orthogonalEdgeStyle;rounded=0;orthogonalLoop=1;jettySize=auto;html=1;" edge="1" parent="WIyWlLk6GJQsqaUBKTNV-1" source="aGrO9-GU3ssrBTv9LyUv-10" target="aGrO9-GU3ssrBTv9LyUv-41">
          <mxGeometry relative="1" as="geometry">
            <mxPoint x="410" y="740" as="sourcePoint" />
            <mxPoint x="410" y="830" as="targetPoint" />
          </mxGeometry>
        </mxCell>
        <mxCell id="aGrO9-GU3ssrBTv9LyUv-48" value="N" style="edgeLabel;html=1;align=center;verticalAlign=middle;resizable=0;points=[];" vertex="1" connectable="0" parent="aGrO9-GU3ssrBTv9LyUv-42">
          <mxGeometry x="-0.632" y="-2" relative="1" as="geometry">
            <mxPoint as="offset" />
          </mxGeometry>
        </mxCell>
        <mxCell id="aGrO9-GU3ssrBTv9LyUv-41" value="" style="strokeWidth=2;html=1;shape=mxgraph.flowchart.start_2;whiteSpace=wrap;fillColor=#f5f5f5;gradientColor=#b3b3b3;strokeColor=#666666;" vertex="1" parent="WIyWlLk6GJQsqaUBKTNV-1">
          <mxGeometry x="395" y="770" width="30" height="30" as="geometry" />
        </mxCell>
        <mxCell id="aGrO9-GU3ssrBTv9LyUv-43" style="edgeStyle=orthogonalEdgeStyle;rounded=0;orthogonalLoop=1;jettySize=auto;html=1;exitX=0.5;exitY=0;exitDx=0;exitDy=0;entryX=1;entryY=0.5;entryDx=0;entryDy=0;entryPerimeter=0;" edge="1" parent="WIyWlLk6GJQsqaUBKTNV-1" source="aGrO9-GU3ssrBTv9LyUv-5" target="aGrO9-GU3ssrBTv9LyUv-39">
          <mxGeometry relative="1" as="geometry" />
        </mxCell>
        <mxCell id="aGrO9-GU3ssrBTv9LyUv-46" style="edgeStyle=orthogonalEdgeStyle;rounded=0;orthogonalLoop=1;jettySize=auto;html=1;exitX=0.5;exitY=0;exitDx=0;exitDy=0;entryX=1;entryY=0.5;entryDx=0;entryDy=0;entryPerimeter=0;" edge="1" parent="WIyWlLk6GJQsqaUBKTNV-1" source="aGrO9-GU3ssrBTv9LyUv-11" target="aGrO9-GU3ssrBTv9LyUv-33">
          <mxGeometry relative="1" as="geometry" />
        </mxCell>
        <mxCell id="aGrO9-GU3ssrBTv9LyUv-50" style="edgeStyle=orthogonalEdgeStyle;rounded=0;orthogonalLoop=1;jettySize=auto;html=1;exitX=0.5;exitY=0;exitDx=0;exitDy=0;entryX=1;entryY=0.5;entryDx=0;entryDy=0;entryPerimeter=0;" edge="1" parent="WIyWlLk6GJQsqaUBKTNV-1" source="aGrO9-GU3ssrBTv9LyUv-26" target="aGrO9-GU3ssrBTv9LyUv-41">
          <mxGeometry relative="1" as="geometry" />
        </mxCell>
        <mxCell id="aGrO9-GU3ssrBTv9LyUv-51" value="" style="edgeStyle=orthogonalEdgeStyle;rounded=0;orthogonalLoop=1;jettySize=auto;html=1;" edge="1" parent="WIyWlLk6GJQsqaUBKTNV-1" source="aGrO9-GU3ssrBTv9LyUv-57" target="aGrO9-GU3ssrBTv9LyUv-54">
          <mxGeometry relative="1" as="geometry" />
        </mxCell>
        <mxCell id="aGrO9-GU3ssrBTv9LyUv-52" value="" style="edgeStyle=orthogonalEdgeStyle;rounded=0;orthogonalLoop=1;jettySize=auto;html=1;" edge="1" parent="WIyWlLk6GJQsqaUBKTNV-1" source="aGrO9-GU3ssrBTv9LyUv-54" target="aGrO9-GU3ssrBTv9LyUv-55">
          <mxGeometry relative="1" as="geometry" />
        </mxCell>
        <mxCell id="aGrO9-GU3ssrBTv9LyUv-53" value="S" style="edgeLabel;html=1;align=center;verticalAlign=middle;resizable=0;points=[];" vertex="1" connectable="0" parent="aGrO9-GU3ssrBTv9LyUv-52">
          <mxGeometry x="0.0057" relative="1" as="geometry">
            <mxPoint as="offset" />
          </mxGeometry>
        </mxCell>
        <mxCell id="aGrO9-GU3ssrBTv9LyUv-54" value="SAQUE &amp;gt;= 10" style="strokeWidth=2;html=1;shape=mxgraph.flowchart.decision;whiteSpace=wrap;fillColor=#ffe6cc;strokeColor=#d79b00;" vertex="1" parent="WIyWlLk6GJQsqaUBKTNV-1">
          <mxGeometry x="360" y="1031" width="100" height="100" as="geometry" />
        </mxCell>
        <mxCell id="aGrO9-GU3ssrBTv9LyUv-55" value="SAQUE = SAQUE - 10&lt;div&gt;QNT-10 = QNT-10 + 1&lt;/div&gt;" style="whiteSpace=wrap;html=1;fillColor=#f5f5f5;strokeColor=#666666;strokeWidth=2;fontColor=#333333;" vertex="1" parent="WIyWlLk6GJQsqaUBKTNV-1">
          <mxGeometry x="530" y="1051" width="140" height="60" as="geometry" />
        </mxCell>
        <mxCell id="aGrO9-GU3ssrBTv9LyUv-56" value="N" style="edgeLabel;html=1;align=center;verticalAlign=middle;resizable=0;points=[];" vertex="1" connectable="0" parent="WIyWlLk6GJQsqaUBKTNV-1">
          <mxGeometry x="408" y="950" as="geometry" />
        </mxCell>
        <mxCell id="aGrO9-GU3ssrBTv9LyUv-57" value="" style="strokeWidth=2;html=1;shape=mxgraph.flowchart.start_2;whiteSpace=wrap;fillColor=#f5f5f5;gradientColor=#b3b3b3;strokeColor=#666666;" vertex="1" parent="WIyWlLk6GJQsqaUBKTNV-1">
          <mxGeometry x="395" y="971" width="30" height="30" as="geometry" />
        </mxCell>
        <mxCell id="aGrO9-GU3ssrBTv9LyUv-58" style="edgeStyle=orthogonalEdgeStyle;rounded=0;orthogonalLoop=1;jettySize=auto;html=1;exitX=0.5;exitY=0;exitDx=0;exitDy=0;entryX=1;entryY=0.5;entryDx=0;entryDy=0;entryPerimeter=0;" edge="1" parent="WIyWlLk6GJQsqaUBKTNV-1" source="aGrO9-GU3ssrBTv9LyUv-55" target="aGrO9-GU3ssrBTv9LyUv-57">
          <mxGeometry relative="1" as="geometry" />
        </mxCell>
        <mxCell id="aGrO9-GU3ssrBTv9LyUv-59" value="" style="edgeStyle=orthogonalEdgeStyle;rounded=0;orthogonalLoop=1;jettySize=auto;html=1;" edge="1" parent="WIyWlLk6GJQsqaUBKTNV-1" source="aGrO9-GU3ssrBTv9LyUv-65" target="aGrO9-GU3ssrBTv9LyUv-62">
          <mxGeometry relative="1" as="geometry" />
        </mxCell>
        <mxCell id="aGrO9-GU3ssrBTv9LyUv-60" value="" style="edgeStyle=orthogonalEdgeStyle;rounded=0;orthogonalLoop=1;jettySize=auto;html=1;" edge="1" parent="WIyWlLk6GJQsqaUBKTNV-1" source="aGrO9-GU3ssrBTv9LyUv-62" target="aGrO9-GU3ssrBTv9LyUv-63">
          <mxGeometry relative="1" as="geometry" />
        </mxCell>
        <mxCell id="aGrO9-GU3ssrBTv9LyUv-61" value="S" style="edgeLabel;html=1;align=center;verticalAlign=middle;resizable=0;points=[];" vertex="1" connectable="0" parent="aGrO9-GU3ssrBTv9LyUv-60">
          <mxGeometry x="0.0057" relative="1" as="geometry">
            <mxPoint as="offset" />
          </mxGeometry>
        </mxCell>
        <mxCell id="aGrO9-GU3ssrBTv9LyUv-85" style="edgeStyle=orthogonalEdgeStyle;rounded=0;orthogonalLoop=1;jettySize=auto;html=1;exitX=0.5;exitY=1;exitDx=0;exitDy=0;exitPerimeter=0;" edge="1" parent="WIyWlLk6GJQsqaUBKTNV-1" source="aGrO9-GU3ssrBTv9LyUv-62">
          <mxGeometry relative="1" as="geometry">
            <mxPoint x="410" y="1410" as="targetPoint" />
          </mxGeometry>
        </mxCell>
        <mxCell id="aGrO9-GU3ssrBTv9LyUv-62" value="SAQUE &amp;gt;= 5" style="strokeWidth=2;html=1;shape=mxgraph.flowchart.decision;whiteSpace=wrap;fillColor=#ffe6cc;strokeColor=#d79b00;" vertex="1" parent="WIyWlLk6GJQsqaUBKTNV-1">
          <mxGeometry x="360" y="1250" width="100" height="100" as="geometry" />
        </mxCell>
        <mxCell id="aGrO9-GU3ssrBTv9LyUv-63" value="SAQUE = SAQUE - 5&lt;div&gt;QNT-5 = QNT-5 + 1&lt;/div&gt;" style="whiteSpace=wrap;html=1;fillColor=#f5f5f5;strokeColor=#666666;strokeWidth=2;fontColor=#333333;" vertex="1" parent="WIyWlLk6GJQsqaUBKTNV-1">
          <mxGeometry x="530" y="1270" width="140" height="60" as="geometry" />
        </mxCell>
        <mxCell id="aGrO9-GU3ssrBTv9LyUv-64" value="N" style="edgeLabel;html=1;align=center;verticalAlign=middle;resizable=0;points=[];" vertex="1" connectable="0" parent="WIyWlLk6GJQsqaUBKTNV-1">
          <mxGeometry x="408" y="1169" as="geometry" />
        </mxCell>
        <mxCell id="aGrO9-GU3ssrBTv9LyUv-65" value="" style="strokeWidth=2;html=1;shape=mxgraph.flowchart.start_2;whiteSpace=wrap;fillColor=#f5f5f5;gradientColor=#b3b3b3;strokeColor=#666666;" vertex="1" parent="WIyWlLk6GJQsqaUBKTNV-1">
          <mxGeometry x="395" y="1190" width="30" height="30" as="geometry" />
        </mxCell>
        <mxCell id="aGrO9-GU3ssrBTv9LyUv-66" style="edgeStyle=orthogonalEdgeStyle;rounded=0;orthogonalLoop=1;jettySize=auto;html=1;exitX=0.5;exitY=0;exitDx=0;exitDy=0;entryX=1;entryY=0.5;entryDx=0;entryDy=0;entryPerimeter=0;" edge="1" parent="WIyWlLk6GJQsqaUBKTNV-1" source="aGrO9-GU3ssrBTv9LyUv-63" target="aGrO9-GU3ssrBTv9LyUv-65">
          <mxGeometry relative="1" as="geometry" />
        </mxCell>
        <mxCell id="aGrO9-GU3ssrBTv9LyUv-67" value="" style="edgeStyle=orthogonalEdgeStyle;rounded=0;orthogonalLoop=1;jettySize=auto;html=1;" edge="1" parent="WIyWlLk6GJQsqaUBKTNV-1" source="aGrO9-GU3ssrBTv9LyUv-73" target="aGrO9-GU3ssrBTv9LyUv-70">
          <mxGeometry relative="1" as="geometry" />
        </mxCell>
        <mxCell id="aGrO9-GU3ssrBTv9LyUv-68" value="" style="edgeStyle=orthogonalEdgeStyle;rounded=0;orthogonalLoop=1;jettySize=auto;html=1;" edge="1" parent="WIyWlLk6GJQsqaUBKTNV-1" source="aGrO9-GU3ssrBTv9LyUv-70" target="aGrO9-GU3ssrBTv9LyUv-71">
          <mxGeometry relative="1" as="geometry" />
        </mxCell>
        <mxCell id="aGrO9-GU3ssrBTv9LyUv-69" value="S" style="edgeLabel;html=1;align=center;verticalAlign=middle;resizable=0;points=[];" vertex="1" connectable="0" parent="aGrO9-GU3ssrBTv9LyUv-68">
          <mxGeometry x="0.0057" relative="1" as="geometry">
            <mxPoint as="offset" />
          </mxGeometry>
        </mxCell>
        <mxCell id="aGrO9-GU3ssrBTv9LyUv-70" value="SAQUE &amp;gt;= 2" style="strokeWidth=2;html=1;shape=mxgraph.flowchart.decision;whiteSpace=wrap;fillColor=#ffe6cc;strokeColor=#d79b00;" vertex="1" parent="WIyWlLk6GJQsqaUBKTNV-1">
          <mxGeometry x="360" y="1471" width="100" height="100" as="geometry" />
        </mxCell>
        <mxCell id="aGrO9-GU3ssrBTv9LyUv-71" value="SAQUE = SAQUE - 2&lt;div&gt;QNT-2 = QNT-2 + 1&lt;/div&gt;" style="whiteSpace=wrap;html=1;fillColor=#f5f5f5;strokeColor=#666666;strokeWidth=2;fontColor=#333333;" vertex="1" parent="WIyWlLk6GJQsqaUBKTNV-1">
          <mxGeometry x="530" y="1491" width="140" height="60" as="geometry" />
        </mxCell>
        <mxCell id="aGrO9-GU3ssrBTv9LyUv-72" value="N" style="edgeLabel;html=1;align=center;verticalAlign=middle;resizable=0;points=[];" vertex="1" connectable="0" parent="WIyWlLk6GJQsqaUBKTNV-1">
          <mxGeometry x="408" y="1390" as="geometry" />
        </mxCell>
        <mxCell id="aGrO9-GU3ssrBTv9LyUv-73" value="" style="strokeWidth=2;html=1;shape=mxgraph.flowchart.start_2;whiteSpace=wrap;fillColor=#f5f5f5;gradientColor=#b3b3b3;strokeColor=#666666;" vertex="1" parent="WIyWlLk6GJQsqaUBKTNV-1">
          <mxGeometry x="395" y="1411" width="30" height="30" as="geometry" />
        </mxCell>
        <mxCell id="aGrO9-GU3ssrBTv9LyUv-74" style="edgeStyle=orthogonalEdgeStyle;rounded=0;orthogonalLoop=1;jettySize=auto;html=1;exitX=0.5;exitY=0;exitDx=0;exitDy=0;entryX=1;entryY=0.5;entryDx=0;entryDy=0;entryPerimeter=0;" edge="1" parent="WIyWlLk6GJQsqaUBKTNV-1" source="aGrO9-GU3ssrBTv9LyUv-71" target="aGrO9-GU3ssrBTv9LyUv-73">
          <mxGeometry relative="1" as="geometry" />
        </mxCell>
        <mxCell id="aGrO9-GU3ssrBTv9LyUv-75" value="" style="edgeStyle=orthogonalEdgeStyle;rounded=0;orthogonalLoop=1;jettySize=auto;html=1;" edge="1" parent="WIyWlLk6GJQsqaUBKTNV-1" source="aGrO9-GU3ssrBTv9LyUv-81" target="aGrO9-GU3ssrBTv9LyUv-78">
          <mxGeometry relative="1" as="geometry" />
        </mxCell>
        <mxCell id="aGrO9-GU3ssrBTv9LyUv-76" value="" style="edgeStyle=orthogonalEdgeStyle;rounded=0;orthogonalLoop=1;jettySize=auto;html=1;" edge="1" parent="WIyWlLk6GJQsqaUBKTNV-1" source="aGrO9-GU3ssrBTv9LyUv-78" target="aGrO9-GU3ssrBTv9LyUv-79">
          <mxGeometry relative="1" as="geometry" />
        </mxCell>
        <mxCell id="aGrO9-GU3ssrBTv9LyUv-77" value="S" style="edgeLabel;html=1;align=center;verticalAlign=middle;resizable=0;points=[];" vertex="1" connectable="0" parent="aGrO9-GU3ssrBTv9LyUv-76">
          <mxGeometry x="0.0057" relative="1" as="geometry">
            <mxPoint as="offset" />
          </mxGeometry>
        </mxCell>
        <mxCell id="aGrO9-GU3ssrBTv9LyUv-88" value="" style="edgeStyle=orthogonalEdgeStyle;rounded=0;orthogonalLoop=1;jettySize=auto;html=1;" edge="1" parent="WIyWlLk6GJQsqaUBKTNV-1" source="aGrO9-GU3ssrBTv9LyUv-78" target="aGrO9-GU3ssrBTv9LyUv-87">
          <mxGeometry relative="1" as="geometry" />
        </mxCell>
        <mxCell id="aGrO9-GU3ssrBTv9LyUv-78" value="SAQUE &amp;gt;= 1" style="strokeWidth=2;html=1;shape=mxgraph.flowchart.decision;whiteSpace=wrap;fillColor=#ffe6cc;strokeColor=#d79b00;" vertex="1" parent="WIyWlLk6GJQsqaUBKTNV-1">
          <mxGeometry x="360" y="1691" width="100" height="100" as="geometry" />
        </mxCell>
        <mxCell id="aGrO9-GU3ssrBTv9LyUv-79" value="SAQUE = SAQUE - 1&lt;div&gt;QNT-1 = QNT-1 + 1&lt;/div&gt;" style="whiteSpace=wrap;html=1;fillColor=#f5f5f5;strokeColor=#666666;strokeWidth=2;fontColor=#333333;" vertex="1" parent="WIyWlLk6GJQsqaUBKTNV-1">
          <mxGeometry x="530" y="1711" width="140" height="60" as="geometry" />
        </mxCell>
        <mxCell id="aGrO9-GU3ssrBTv9LyUv-80" value="N" style="edgeLabel;html=1;align=center;verticalAlign=middle;resizable=0;points=[];" vertex="1" connectable="0" parent="WIyWlLk6GJQsqaUBKTNV-1">
          <mxGeometry x="408" y="1610" as="geometry" />
        </mxCell>
        <mxCell id="aGrO9-GU3ssrBTv9LyUv-81" value="" style="strokeWidth=2;html=1;shape=mxgraph.flowchart.start_2;whiteSpace=wrap;fillColor=#f5f5f5;gradientColor=#b3b3b3;strokeColor=#666666;" vertex="1" parent="WIyWlLk6GJQsqaUBKTNV-1">
          <mxGeometry x="395" y="1631" width="30" height="30" as="geometry" />
        </mxCell>
        <mxCell id="aGrO9-GU3ssrBTv9LyUv-82" style="edgeStyle=orthogonalEdgeStyle;rounded=0;orthogonalLoop=1;jettySize=auto;html=1;exitX=0.5;exitY=0;exitDx=0;exitDy=0;entryX=1;entryY=0.5;entryDx=0;entryDy=0;entryPerimeter=0;" edge="1" parent="WIyWlLk6GJQsqaUBKTNV-1" source="aGrO9-GU3ssrBTv9LyUv-79" target="aGrO9-GU3ssrBTv9LyUv-81">
          <mxGeometry relative="1" as="geometry" />
        </mxCell>
        <mxCell id="aGrO9-GU3ssrBTv9LyUv-83" style="edgeStyle=orthogonalEdgeStyle;rounded=0;orthogonalLoop=1;jettySize=auto;html=1;exitX=0.5;exitY=1;exitDx=0;exitDy=0;exitPerimeter=0;entryX=0.5;entryY=0;entryDx=0;entryDy=0;entryPerimeter=0;" edge="1" parent="WIyWlLk6GJQsqaUBKTNV-1" source="aGrO9-GU3ssrBTv9LyUv-25" target="aGrO9-GU3ssrBTv9LyUv-57">
          <mxGeometry relative="1" as="geometry" />
        </mxCell>
        <mxCell id="aGrO9-GU3ssrBTv9LyUv-84" style="edgeStyle=orthogonalEdgeStyle;rounded=0;orthogonalLoop=1;jettySize=auto;html=1;exitX=0.5;exitY=1;exitDx=0;exitDy=0;exitPerimeter=0;entryX=0.5;entryY=0;entryDx=0;entryDy=0;entryPerimeter=0;" edge="1" parent="WIyWlLk6GJQsqaUBKTNV-1" source="aGrO9-GU3ssrBTv9LyUv-54" target="aGrO9-GU3ssrBTv9LyUv-65">
          <mxGeometry relative="1" as="geometry" />
        </mxCell>
        <mxCell id="aGrO9-GU3ssrBTv9LyUv-86" style="edgeStyle=orthogonalEdgeStyle;rounded=0;orthogonalLoop=1;jettySize=auto;html=1;exitX=0.5;exitY=1;exitDx=0;exitDy=0;exitPerimeter=0;entryX=0.5;entryY=0;entryDx=0;entryDy=0;entryPerimeter=0;" edge="1" parent="WIyWlLk6GJQsqaUBKTNV-1" source="aGrO9-GU3ssrBTv9LyUv-70" target="aGrO9-GU3ssrBTv9LyUv-81">
          <mxGeometry relative="1" as="geometry" />
        </mxCell>
        <mxCell id="aGrO9-GU3ssrBTv9LyUv-87" value="FIM" style="strokeWidth=2;html=1;shape=mxgraph.flowchart.start_1;whiteSpace=wrap;fillColor=#d5e8d4;strokeColor=#82b366;" vertex="1" parent="WIyWlLk6GJQsqaUBKTNV-1">
          <mxGeometry x="360" y="1830" width="100" height="60" as="geometry" />
        </mxCell>
      </root>
    </mxGraphModel>
  </diagram>
</mxfile>
